<svg width="512" height="512" viewBox="0 0 512 512" xmlns="http://www.w3.org/2000/svg">
  <!-- BlackBerry-style minimalist design with ZINWA branding -->
  <rect width="512" height="512" fill="#000000"/>
  
  <!-- Screen representation -->
  <rect x="64" y="64" width="384" height="240" rx="8" fill="#2d2d2d"/>
  
  <!-- Keyboard area -->
  <rect x="64" y="320" width="384" height="128" rx="8" fill="#1a1a1a"/>
  
  <!-- Keyboard keys - simplified grid -->
  <!-- Row 1 -->
  <rect x="80" y="336" width="24" height="24" rx="3" fill="#4a4a4a"/>
  <rect x="112" y="336" width="24" height="24" rx="3" fill="#4a4a4a"/>
  <rect x="144" y="336" width="24" height="24" rx="3" fill="#4a4a4a"/>
  <rect x="176" y="336" width="24" height="24" rx="3" fill="#4a4a4a"/>
  <rect x="208" y="336" width="24" height="24" rx="3" fill="#4a4a4a"/>
  <rect x="240" y="336" width="24" height="24" rx="3" fill="#4a4a4a"/>
  <rect x="272" y="336" width="24" height="24" rx="3" fill="#4a4a4a"/>
  <rect x="304" y="336" width="24" height="24" rx="3" fill="#4a4a4a"/>
  <rect x="336" y="336" width="24" height="24" rx="3" fill="#4a4a4a"/>
  <rect x="368" y="336" width="24" height="24" rx="3" fill="#4a4a4a"/>
  <rect x="400" y="336" width="24" height="24" rx="3" fill="#4a4a4a"/>
  
  <!-- Row 2 -->
  <rect x="96" y="368" width="24" height="24" rx="3" fill="#4a4a4a"/>
  <rect x="128" y="368" width="24" height="24" rx="3" fill="#4a4a4a"/>
  <rect x="160" y="368" width="24" height="24" rx="3" fill="#4a4a4a"/>
  <rect x="192" y="368" width="24" height="24" rx="3" fill="#4a4a4a"/>
  <rect x="224" y="368" width="24" height="24" rx="3" fill="#4a4a4a"/>
  <rect x="256" y="368" width="24" height="24" rx="3" fill="#4a4a4a"/>
  <rect x="288" y="368" width="24" height="24" rx="3" fill="#4a4a4a"/>
  <rect x="320" y="368" width="24" height="24" rx="3" fill="#4a4a4a"/>
  <rect x="352" y="368" width="24" height="24" rx="3" fill="#4a4a4a"/>
  <rect x="384" y="368" width="24" height="24" rx="3" fill="#4a4a4a"/>
  
  <!-- Row 3 -->
  <rect x="112" y="400" width="24" height="24" rx="3" fill="#4a4a4a"/>
  <rect x="144" y="400" width="24" height="24" rx="3" fill="#4a4a4a"/>
  <rect x="176" y="400" width="24" height="24" rx="3" fill="#4a4a4a"/>
  <rect x="208" y="400" width="24" height="24" rx="3" fill="#4a4a4a"/>
  <rect x="240" y="400" width="24" height="24" rx="3" fill="#4a4a4a"/>
  <rect x="272" y="400" width="24" height="24" rx="3" fill="#4a4a4a"/>
  <rect x="304" y="400" width="24" height="24" rx="3" fill="#4a4a4a"/>
  <rect x="336" y="400" width="24" height="24" rx="3" fill="#4a4a4a"/>
  <rect x="368" y="400" width="24" height="24" rx="3" fill="#4a4a4a"/>
  
  <!-- Z letter in center (simplified) -->
  <text x="256" y="200" font-family="Arial, sans-serif" font-size="120" font-weight="bold" fill="#ffffff" text-anchor="middle">Z</text>
</svg>
