<svg width="1200" height="630" viewBox="0 0 1200 630" xmlns="http://www.w3.org/2000/svg">
  <!-- Professional OG image for social media sharing -->
  <rect width="1200" height="630" fill="#000000"/>
  
  <!-- Background pattern -->
  <rect x="0" y="0" width="1200" height="630" fill="url(#grid)" opacity="0.05"/>
  <defs>
    <pattern id="grid" width="40" height="40" patternUnits="userSpaceOnUse">
      <path d="M 40 0 L 0 0 0 40" fill="none" stroke="#ffffff" stroke-width="1"/>
    </pattern>
  </defs>
  
  <!-- Phone mockup -->
  <g transform="translate(800, 315)">
    <!-- Phone body -->
    <rect x="-120" y="-280" width="240" height="520" rx="20" fill="#1a1a1a" stroke="#4a4a4a" stroke-width="2"/>
    
    <!-- Screen -->
    <rect x="-100" y="-260" width="200" height="280" rx="8" fill="#2d2d2d"/>
    
    <!-- Trackpad area -->
    <circle cx="0" cy="60" r="30" fill="#333333" stroke="#555555" stroke-width="2"/>
    
    <!-- Keyboard -->
    <rect x="-100" y="100" width="200" height="130" rx="6" fill="#0a0a0a"/>
    
    <!-- Keyboard keys simplified -->
    <g opacity="0.8">
      <!-- Row 1 -->
      <rect x="-80" y="110" width="12" height="12" rx="2" fill="#4a4a4a"/>
      <rect x="-60" y="110" width="12" height="12" rx="2" fill="#4a4a4a"/>
      <rect x="-40" y="110" width="12" height="12" rx="2" fill="#4a4a4a"/>
      <rect x="-20" y="110" width="12" height="12" rx="2" fill="#4a4a4a"/>
      <rect x="0" y="110" width="12" height="12" rx="2" fill="#4a4a4a"/>
      <rect x="20" y="110" width="12" height="12" rx="2" fill="#4a4a4a"/>
      <rect x="40" y="110" width="12" height="12" rx="2" fill="#4a4a4a"/>
      <rect x="60" y="110" width="12" height="12" rx="2" fill="#4a4a4a"/>
      
      <!-- Row 2 -->
      <rect x="-70" y="130" width="12" height="12" rx="2" fill="#4a4a4a"/>
      <rect x="-50" y="130" width="12" height="12" rx="2" fill="#4a4a4a"/>
      <rect x="-30" y="130" width="12" height="12" rx="2" fill="#4a4a4a"/>
      <rect x="-10" y="130" width="12" height="12" rx="2" fill="#4a4a4a"/>
      <rect x="10" y="130" width="12" height="12" rx="2" fill="#4a4a4a"/>
      <rect x="30" y="130" width="12" height="12" rx="2" fill="#4a4a4a"/>
      <rect x="50" y="130" width="12" height="12" rx="2" fill="#4a4a4a"/>
      
      <!-- Row 3 -->
      <rect x="-60" y="150" width="12" height="12" rx="2" fill="#4a4a4a"/>
      <rect x="-40" y="150" width="12" height="12" rx="2" fill="#4a4a4a"/>
      <rect x="-20" y="150" width="12" height="12" rx="2" fill="#4a4a4a"/>
      <rect x="0" y="150" width="12" height="12" rx="2" fill="#4a4a4a"/>
      <rect x="20" y="150" width="12" height="12" rx="2" fill="#4a4a4a"/>
      <rect x="40" y="150" width="12" height="12" rx="2" fill="#4a4a4a"/>
      
      <!-- Row 4 - Space bar -->
      <rect x="-50" y="170" width="100" height="12" rx="2" fill="#4a4a4a"/>
    </g>
    
    <!-- Call and End buttons -->
    <circle cx="-60" cy="60" r="18" fill="#1a8a1a" opacity="0.8"/>
    <circle cx="60" cy="60" r="18" fill="#8a1a1a" opacity="0.8"/>
  </g>
  
  <!-- Text content -->
  <g transform="translate(100, 200)">
    <!-- Brand -->
    <text x="0" y="0" font-family="Arial, sans-serif" font-size="80" font-weight="bold" fill="#ffffff" letter-spacing="8">ZINWA</text>
    
    <!-- Model -->
    <text x="0" y="80" font-family="Arial, sans-serif" font-size="120" font-weight="bold" fill="#ffffff">Q25</text>
    
    <!-- Tagline -->
    <text x="0" y="140" font-family="Arial, sans-serif" font-size="32" font-weight="300" fill="#999999">Productivity Redefined</text>
    
    <!-- Key features -->
    <text x="0" y="200" font-family="Arial, sans-serif" font-size="24" fill="#cccccc">Physical QWERTY Keyboard</text>
    <text x="0" y="235" font-family="Arial, sans-serif" font-size="24" fill="#cccccc">Android 14 AOSP</text>
    <text x="0" y="270" font-family="Arial, sans-serif" font-size="24" fill="#cccccc">12GB RAM • 256GB Storage</text>
  </g>
</svg>
